<?xml version="1.0" encoding="utf-8"?>
<!-- Generator: Adobe Illustrator 16.0.0, SVG Export Plug-In . SVG Version: 6.00 Build 0)  -->
<!DOCTYPE svg PUBLIC "-//W3C//DTD SVG 1.1//EN" "http://www.w3.org/Graphics/SVG/1.1/DTD/svg11.dtd">
<svg version="1.1" xmlns="http://www.w3.org/2000/svg" xmlns:xlink="http://www.w3.org/1999/xlink" x="0px" y="0px" width="400px"
	 height="400px" viewBox="0 0 400 400" enable-background="new 0 0 400 400" xml:space="preserve">
<g id="fill">
</g>
<g id="Layer_1">
</g>
<g id="members">
</g>
<g id="bolts">
</g>
<g id="draw">
</g>
<g id="Default">
	<g>
		<g>
			<path fill="#0F3955" d="M41.582,314.867C17.446,282.191,3.178,241.783,3.178,198.043C3.178,89.341,91.298,1.221,200,1.221
				c108.701,0,196.821,88.12,196.821,196.822c0,46.417-16.068,89.083-42.946,122.736c-24.513,0.679-26.381,19.249-51.269,19.249
				c-22.082,0-28.667-19.246-49.339-19.246c-21.643,0-28.978,19.246-50.307,19.246c-20.235,0-26.781-19.246-50.409-19.246
				c-28.018,0-28.996,19.246-53.761,19.246c-14.316,0-21.007-5.577-28.764-10.724c1.43-17.26,19.223-141.517,168.749-174.651
				C89.337,170.431,48.597,288.771,41.875,314.797"/>
		</g>
	</g>
</g>
<g id="cut">
</g>
<g id="favIcon">
</g>
<g id="_x31_31207_x5F_thank_x5F_you_x5F_note">
</g>
<g id="_x31_40227_x5F_banner">
</g>
</svg>
