<?xml version="1.0" encoding="utf-8"?>
<!-- Generator: Adobe Illustrator 16.0.0, SVG Export Plug-In . SVG Version: 6.00 Build 0)  -->
<!DOCTYPE svg PUBLIC "-//W3C//DTD SVG 1.1//EN" "http://www.w3.org/Graphics/SVG/1.1/DTD/svg11.dtd">
<svg version="1.1" xmlns="http://www.w3.org/2000/svg" xmlns:xlink="http://www.w3.org/1999/xlink" x="0px" y="0px" width="400px"
	 height="400px" viewBox="0 0 400 400" enable-background="new 0 0 400 400" xml:space="preserve">
<g id="fill">
</g>
<g id="Layer_1">
</g>
<g id="members">
</g>
<g id="bolts">
</g>
<g id="draw">
</g>
<g id="Default">
</g>
<g id="cut">
</g>
<g id="favIcon">
</g>
<g id="_x31_31207_x5F_thank_x5F_you_x5F_note">
</g>
<g id="_x31_40227_x5F_banner">
	<path fill="#0F3955" d="M353.722,324.998l-0.524-3.531l-0.576-4.36l-0.296-5.119l0.529-4.97l0.458-4.309l-0.241-4.622l-1.058-4.52
		l-2.828-2.777l-1.994-0.186l-1.273,1.109l-1.994-2.77l-0.133-6.545l1.152-2.399h3.527l4.475-1.613l4.105-1.281l4.035-1.015
		l-0.17-3.507l0.027-5.584v-3v-4.92l-0.691-3.387l-0.891-3.265l-1.76-4.482l-2.151-5.266l-1.771-4.283l-1.824-4.263l0.574-2.78
		l-1.045-6.334l-2.381-5.067c0,0-1.991-2.701-2.802-3.801s-2.979-2.229-2.979-2.229l-1.184,0.391l0.9,3.689l-0.988,3.153
		l-3.973,1.113l-1.992-2.967l-0.977-3.548l-1.124-3.971l-2.219-3.769l-2.948-2.989l-3.768-0.098l-1.684-3.597l-1.703-3.639
		l-1.895-4.049l-2.094-4.472l-1.266-4.628l-1.336-4.872l-1.331-4.854l-1.448-5.282l-3.967-2.776l-4.463-0.574l-4.125-0.533
		l-6.914-0.904l-4.818-1.404l-5.943-2.234c0,0-5.006-2.597-5.896-3.163s-3.906-3.188-3.906-3.188l-3.537-3.208l-3.762-3.412
		l-3.852-4.003l-1.511-4.318l-2.599-7.171l-3.217-3.612l-4.624-5.194l-3.038-3.724l-2.414-3.636l-1.583-2.874l-1.61-5.56
		l-2.892-3.461l69.104-71.896c-30.801-19.865-67.45-31.461-106.819-31.632C89.936,0.58,0.479,89.262,0.002,199.134
		c-0.477,109.873,88.204,199.331,198.076,199.806C260.91,399.213,317.065,370.329,353.722,324.998z"/>
</g>
</svg>
