<?xml version="1.0" encoding="utf-8"?>
<!-- Generator: Adobe Illustrator 16.0.0, SVG Export Plug-In . SVG Version: 6.00 Build 0)  -->
<!DOCTYPE svg PUBLIC "-//W3C//DTD SVG 1.1//EN" "http://www.w3.org/Graphics/SVG/1.1/DTD/svg11.dtd">
<svg version="1.1" xmlns="http://www.w3.org/2000/svg" xmlns:xlink="http://www.w3.org/1999/xlink" x="0px" y="0px" width="400px"
	 height="400px" viewBox="0 0 400 400" enable-background="new 0 0 400 400" xml:space="preserve">
<g id="fill">
	<path fill="#0F3955" d="M199.135,399.16C89.263,398.686,0.582,309.228,1.059,199.354C1.536,89.482,90.992,0.801,200.865,1.279
		c109.872,0.478,198.554,89.934,198.076,199.806C398.463,310.957,309.008,399.639,199.135,399.16z"/>
	<g>
		<rect x="132.04" y="229.963" fill="#FFFFFF" width="136.058" height="19.067"/>
		<rect x="132.04" y="191.012" fill="#FFFFFF" width="136.058" height="19.476"/>
		<rect x="165.543" y="152.06" fill="#FFFFFF" width="102.554" height="19.476"/>
		<path fill="#FFFFFF" d="M131.903,161.865c0-5.992,4.903-10.896,10.896-10.896s10.896,4.903,10.896,10.896
			c0,5.993-4.903,10.896-10.896,10.896S131.903,167.858,131.903,161.865"/>
	</g>
</g>
<g id="Layer_1">
</g>
<g id="members">
</g>
<g id="bolts">
</g>
<g id="draw">
</g>
<g id="Default">
</g>
<g id="cut">
</g>
<g id="favIcon">
</g>
<g id="_x31_31207_x5F_thank_x5F_you_x5F_note">
</g>
<g id="_x31_40227_x5F_banner">
</g>
</svg>
