<?xml version="1.0" encoding="utf-8"?>
<!-- Generator: Adobe Illustrator 16.0.0, SVG Export Plug-In . SVG Version: 6.00 Build 0)  -->
<!DOCTYPE svg PUBLIC "-//W3C//DTD SVG 1.1//EN" "http://www.w3.org/Graphics/SVG/1.1/DTD/svg11.dtd">
<svg version="1.1" xmlns="http://www.w3.org/2000/svg" xmlns:xlink="http://www.w3.org/1999/xlink" x="0px" y="0px" width="400px"
	 height="400px" viewBox="0 0 400 400" enable-background="new 0 0 400 400" xml:space="preserve">
<g id="fill">
	<circle fill="#0F3955" cx="200" cy="200" r="199.221"/>
</g>
<g id="Layer_1">
</g>
<g id="members">
</g>
<g id="bolts">
</g>
<g id="draw">
</g>
<g id="Default">
	<path fill="#FFFFFF" stroke="#FFFFFF" stroke-width="1.6294" stroke-miterlimit="10" d="M276.465,263.994
		c-7.441-9.773-21.396-11.668-31.175-4.221c-9.775,7.441-11.668,21.399-4.226,31.174c7.442,9.775,21.4,11.666,31.176,4.224
		C282.021,287.725,283.909,273.77,276.465,263.994z"/>
	<path fill="#FFFFFF" stroke="#FFFFFF" stroke-width="1.6294" stroke-miterlimit="10" d="M158.494,109.052
		c-7.443-9.776-21.397-11.669-31.177-4.224c-9.775,7.443-11.668,21.401-4.224,31.177c7.443,9.776,21.402,11.669,31.179,4.226
		C164.052,132.785,165.939,118.829,158.494,109.052z"/>
	<path fill="#FFFFFF" d="M234.715,248.881c-0.905,0-1.799-0.407-2.389-1.183l-6.446-8.467l-17.369,6.022
		c-1.225,0.426-2.585,0.015-3.37-1.017c-0.786-1.031-0.819-2.451-0.084-3.519l18.128-26.326l-30.202,10.471
		c-1.228,0.422-2.584,0.014-3.37-1.018c-0.786-1.031-0.819-2.451-0.084-3.519L207.659,194l-30.2,10.472
		c-1.224,0.425-2.584,0.015-3.37-1.017c-0.786-1.031-0.819-2.451-0.084-3.519l18.128-26.326l-30.2,10.472
		c-1.226,0.424-2.584,0.015-3.37-1.017c-0.786-1.032-0.819-2.451-0.084-3.519l10.427-15.141l-6.446-8.466
		c-1.004-1.318-0.749-3.201,0.569-4.204c1.318-1.005,3.2-0.749,4.204,0.569l7.763,10.195c0.786,1.032,0.819,2.451,0.084,3.519
		l-6.473,9.399l30.2-10.472c1.224-0.425,2.584-0.015,3.37,1.017c0.786,1.032,0.819,2.451,0.084,3.519l-18.128,26.326l30.199-10.472
		c1.223-0.426,2.584-0.015,3.37,1.017c0.786,1.032,0.819,2.451,0.084,3.519l-18.129,26.327l30.202-10.471
		c1.225-0.425,2.584-0.015,3.37,1.018c0.786,1.031,0.819,2.451,0.084,3.519l-18.128,26.326l10.782-3.738
		c1.224-0.429,2.584-0.015,3.37,1.017l7.763,10.195c1.004,1.318,0.749,3.2-0.569,4.204
		C235.987,248.681,235.349,248.881,234.715,248.881z"/>
</g>
<g id="cut">
</g>
<g id="favIcon">
</g>
<g id="_x31_31207_x5F_thank_x5F_you_x5F_note">
</g>
<g id="_x31_40227_x5F_banner">
</g>
</svg>
