<?xml version="1.0" encoding="utf-8"?>
<!-- Generator: Adobe Illustrator 16.0.0, SVG Export Plug-In . SVG Version: 6.00 Build 0)  -->
<!DOCTYPE svg PUBLIC "-//W3C//DTD SVG 1.1//EN" "http://www.w3.org/Graphics/SVG/1.1/DTD/svg11.dtd">
<svg version="1.1" xmlns="http://www.w3.org/2000/svg" xmlns:xlink="http://www.w3.org/1999/xlink" x="0px" y="0px" width="400px"
	 height="400px" viewBox="0 0 400 400" enable-background="new 0 0 400 400" xml:space="preserve">
<g id="fill">
	<circle fill="#0F3955" cx="200" cy="200" r="198.806"/>
</g>
<g id="Layer_1">
</g>
<g id="members">
</g>
<g id="bolts">
	<path fill="none" stroke="#FFFFFF" stroke-width="5.9271" stroke-linecap="round" stroke-linejoin="round" d="M166.268,122.81
		c-3.999-4-10.486-4-14.486,0c-4,4.001-4,10.486,0,14.487"/>
	
		<line fill="none" stroke="#FFFFFF" stroke-width="5.9271" stroke-linecap="round" stroke-linejoin="round" x1="200" y1="156.542" x2="166.268" y2="122.81"/>
	
		<line fill="none" stroke="#FFFFFF" stroke-width="5.9271" stroke-linecap="round" stroke-linejoin="round" x1="268.706" y1="225.247" x2="214.486" y2="171.028"/>
	
		<line fill="none" stroke="#FFFFFF" stroke-width="5.9271" stroke-linecap="round" stroke-linejoin="round" x1="185.513" y1="171.028" x2="151.781" y2="137.297"/>
	
		<line fill="none" stroke="#FFFFFF" stroke-width="5.9271" stroke-linecap="round" stroke-linejoin="round" x1="246.975" y1="232.491" x2="200" y2="185.516"/>
	
		<line fill="none" stroke="#FFFFFF" stroke-width="5.9271" stroke-linecap="round" stroke-linejoin="round" x1="200" y1="279.467" x2="153.024" y2="232.491"/>
	
		<line fill="none" stroke="#FFFFFF" stroke-width="5.9271" stroke-linecap="round" stroke-linejoin="round" x1="185.513" y1="293.953" x2="131.294" y2="239.734"/>
	
		<line fill="none" stroke="#FFFFFF" stroke-width="5.9271" stroke-linecap="round" stroke-linejoin="round" x1="275.514" y1="383.954" x2="200" y2="308.44"/>
	
		<line fill="none" stroke="#FFFFFF" stroke-width="5.9271" stroke-linecap="round" stroke-linejoin="round" x1="295.135" y1="374.603" x2="214.486" y2="293.953"/>
	<path fill="#FFFFFF" stroke="#FFFFFF" stroke-width="5.9271" stroke-linecap="round" stroke-linejoin="round" d="M124.488,383.952
		l144.218-144.218c3.999-4,3.999-10.486,0-14.487c-4.001-4-10.488-4-14.488,0L104.863,374.603l8.875,5.308L124.488,383.952z"/>
	<path fill="#FFFFFF" stroke="#FFFFFF" stroke-width="1.017" stroke-miterlimit="10" d="M144.485,241.457
		c-4.119,4.119-10.796,4.118-14.915-0.001c-4.116-4.117-4.116-10.794,0-14.913l105.458-105.456c4.115-4.117,10.793-4.117,14.912,0
		c4.117,4.12,4.117,10.795,0,14.914L144.485,241.457H129.57c-4.116-4.118-4.116-10.795,0-14.914"/>
	<circle fill="#0F3955" cx="200" cy="171.028" r="4.097"/>
	<circle fill="#0F3955" cx="261.461" cy="232.491" r="4.098"/>
	<circle fill="#0F3955" cx="200" cy="293.953" r="4.097"/>
	<circle fill="#0F3955" cx="138.537" cy="232.491" r="4.098"/>
</g>
<g id="draw">
</g>
<g id="Default">
</g>
<g id="cut">
</g>
<g id="favIcon">
</g>
<g id="_x31_31207_x5F_thank_x5F_you_x5F_note">
</g>
<g id="_x31_40227_x5F_banner">
</g>
</svg>
