<?xml version="1.0" encoding="utf-8"?>
<!-- Generator: Adobe Illustrator 16.0.0, SVG Export Plug-In . SVG Version: 6.00 Build 0)  -->
<!DOCTYPE svg PUBLIC "-//W3C//DTD SVG 1.1//EN" "http://www.w3.org/Graphics/SVG/1.1/DTD/svg11.dtd">
<svg version="1.1" xmlns="http://www.w3.org/2000/svg" xmlns:xlink="http://www.w3.org/1999/xlink" x="0px" y="0px" width="400px"
	 height="400px" viewBox="0 0 400 400" enable-background="new 0 0 400 400" xml:space="preserve">
<g id="fill">
	<circle fill="#0F3955" cx="200.779" cy="199.712" r="199.221"/>
	<circle fill="#0F3955" cx="200.112" cy="199.712" r="199.221"/>
	<circle fill="#0F3955" cx="199.737" cy="199.712" r="199.221"/>
</g>
<g id="Layer_1">
</g>
<g id="members">
</g>
<g id="bolts">
</g>
<g id="draw">
</g>
<g id="Default">
</g>
<g id="cut">
</g>
<g id="favIcon">
</g>
<g id="_x31_31207_x5F_thank_x5F_you_x5F_note">
</g>
<g id="_x31_40227_x5F_banner">
	<g>
		<path fill="none" stroke="#FFFFFF" stroke-width="8" stroke-linecap="round" stroke-linejoin="round" stroke-miterlimit="10" d="
			M2.184,193.898c22.912,5.272,27.717,19.405,27.717,19.405c29.332,56.784,99.439,48.688,99.439,48.688l-0.248-9.735l108.744-1.049
			l1.715-119.169l-108.508,1.26l-0.683-9.999c-40.562,0.764-65.312,12.08-97.276,51.069C17.986,192.781,2.184,193.898,2.184,193.898
			"/>
		
			<line fill="none" stroke="#FFFFFF" stroke-width="8" stroke-linecap="round" stroke-linejoin="round" stroke-miterlimit="10" x1="130.686" y1="133.326" x2="129.414" y2="252.24"/>
		
			<polygon fill="none" stroke="#FFFFFF" stroke-width="8" stroke-linecap="round" stroke-linejoin="round" stroke-miterlimit="10" points="
			199.555,180.429 172.854,181.181 172.301,162.097 199.018,161.34 		"/>
		
			<polygon fill="none" stroke="#FFFFFF" stroke-width="8" stroke-linecap="round" stroke-linejoin="round" stroke-miterlimit="10" points="
			212.199,222.067 166.406,223.368 165.764,200.472 211.545,199.171 		"/>
	</g>
</g>
</svg>
