<?xml version="1.0" encoding="utf-8"?>
<!-- Generator: Adobe Illustrator 16.0.0, SVG Export Plug-In . SVG Version: 6.00 Build 0)  -->
<!DOCTYPE svg PUBLIC "-//W3C//DTD SVG 1.1//EN" "http://www.w3.org/Graphics/SVG/1.1/DTD/svg11.dtd">
<svg version="1.1" xmlns="http://www.w3.org/2000/svg" xmlns:xlink="http://www.w3.org/1999/xlink" x="0px" y="0px" width="400px"
	 height="400px" viewBox="0 0 400 400" enable-background="new 0 0 400 400" xml:space="preserve">
<g id="fill">
	<path fill="#0F3955" d="M200.001,398.927c-54.089,0-106.13-22.244-143.529-61.19l26.826-27.219c0.08-0.083,0.159-0.17,0.233-0.256
		c0,0,21.731-21.636,37.434-43.782s0.326-0.411,0.461-0.636c0,0,30.879-51.74,32.352-53.011s10.547-4.433,13.01-4.883
		s42.811,2.331,46.074,2.878s8.931,4.255,13.875,4.631c6.462,0.491,13.805-1.167,15.395-3.853
		c2.494-5.523-3.583-19.841-3.583-19.841c-0.312-1.174-1.049-2.191-2.066-2.854c0,0-20.763-13.142-27.56-17.964
		s-15.247-13.484-18.271-15.071c-3.296-1.73-10.522-0.805-12.086-1.882s-11.637-14.427-11.637-14.427
		c-0.958-1.187-2.378-1.833-3.835-1.833c-0.65,0-1.307,0.129-1.932,0.396c-2.025,0.865-3.232,2.973-2.951,5.159l1.426,11.034
		l-0.199,0.216l-9.905-6.521c-0.816-0.538-1.76-0.812-2.708-0.812c-0.646,0-1.297,0.128-1.911,0.386
		c-1.513,0.637-2.609,1.987-2.92,3.599c0,0-1.939,13.042-2.924,15.051s-52.413,53.109-72.407,71.101s-50.409,39.012-50.409,39.012
		c-10.075-24.193-15.18-49.85-15.18-76.353C1.073,90.312,90.312,1.073,200.001,1.073c109.689,0,198.928,89.239,198.928,198.928
		C398.929,309.689,309.69,398.927,200.001,398.927z"/>
</g>
<g id="Layer_1">
</g>
<g id="members">
</g>
<g id="bolts">
</g>
<g id="draw">
	<path fill="#0F3955" d="M178.5,169.927c1.649-0.418,2.409-1.754,3.797-0.733c1.388,1.021,0.524,2.488,0.498,3.378
		s0.365,1.938-0.682,2.487s-2.487,0.079-3.613-0.628c-1.125-0.707-4.241-0.523-4.006-2.802
		C174.729,169.351,176.851,170.346,178.5,169.927z"/>
</g>
<g id="Default">
</g>
<g id="cut">
</g>
<g id="favIcon">
</g>
<g id="_x31_31207_x5F_thank_x5F_you_x5F_note">
</g>
<g id="_x31_40227_x5F_banner">
</g>
</svg>
