<?xml version="1.0" encoding="utf-8"?>
<!-- Generator: Adobe Illustrator 16.0.0, SVG Export Plug-In . SVG Version: 6.00 Build 0)  -->
<!DOCTYPE svg PUBLIC "-//W3C//DTD SVG 1.1//EN" "http://www.w3.org/Graphics/SVG/1.1/DTD/svg11.dtd">
<svg version="1.1" xmlns="http://www.w3.org/2000/svg" xmlns:xlink="http://www.w3.org/1999/xlink" x="0px" y="0px" width="400px"
	 height="400px" viewBox="0 0 400 400" enable-background="new 0 0 400 400" xml:space="preserve">
<g id="fill">
	<circle fill="#0F3955" cx="200" cy="200" r="199.221"/>
	<g>
		<path fill="#FFFFFF" d="M79.03,252.366c14.853,16.409,37.376,25.644,62.532,25.644c44.725,0,81.006-32.275,81.006-73.053
			c0-40.779-36.261-72.572-80.985-72.572c-0.737,0-3.294,0-3.294,0l0,0H0v122h79"/>
		<path fill="#0F3955" d="M144.953,183.667c-18.414,0-33.344,8.266-33.344,18.46c0,10.195,14.93,18.461,33.344,18.461
			c18.419,0,33.349-8.266,33.349-18.461C178.302,191.933,163.372,183.667,144.953,183.667z"/>
	</g>
	<rect x="27" y="94.385" fill="#FFFFFF" width="118" height="5"/>
	<rect x="50" y="97.385" fill="#FFFFFF" width="5" height="59"/>
</g>
<g id="Layer_1">
</g>
<g id="members">
</g>
<g id="bolts">
</g>
<g id="draw">
</g>
<g id="Default">
</g>
<g id="cut">
</g>
<g id="favIcon">
</g>
<g id="_x31_31207_x5F_thank_x5F_you_x5F_note">
</g>
<g id="_x31_40227_x5F_banner">
</g>
</svg>
