<?xml version="1.0" encoding="utf-8"?>
<!-- Generator: Adobe Illustrator 16.0.0, SVG Export Plug-In . SVG Version: 6.00 Build 0)  -->
<!DOCTYPE svg PUBLIC "-//W3C//DTD SVG 1.1//EN" "http://www.w3.org/Graphics/SVG/1.1/DTD/svg11.dtd">
<svg version="1.1" xmlns="http://www.w3.org/2000/svg" xmlns:xlink="http://www.w3.org/1999/xlink" x="0px" y="0px" width="400px"
	 height="400px" viewBox="0 0 400 400" enable-background="new 0 0 400 400" xml:space="preserve">
<g id="fill">
	<path fill="#0F3955" d="M199.135,398.939C89.263,398.465,0.582,309.007,1.059,199.134C1.536,89.262,90.992,0.58,200.865,1.059
		c109.872,0.478,198.554,89.934,198.076,199.806C398.463,310.736,309.008,399.418,199.135,398.939z"/>
</g>
<g id="Layer_1">
	<g>
		
			<line fill="none" stroke="#FFFFFF" stroke-width="8" stroke-linecap="round" stroke-linejoin="round" stroke-miterlimit="10" x1="274.299" y1="153.781" x2="126.702" y2="245.93"/>
		
			<line fill="none" stroke="#FFFFFF" stroke-width="8" stroke-linecap="round" stroke-linejoin="round" stroke-miterlimit="10" x1="154.425" y1="126.056" x2="246.575" y2="273.653"/>
		<path fill="none" stroke="#FFFFFF" stroke-width="8" stroke-linecap="round" stroke-linejoin="round" stroke-miterlimit="10" d="
			M220.44,114.906c0,0-18.53,41.45,0.615,72.116c19.146,30.664,64.093,33.517,64.093,33.517"/>
		<path fill="none" stroke="#FFFFFF" stroke-width="8" stroke-linecap="round" stroke-linejoin="round" stroke-miterlimit="10" d="
			M116.711,179.668c0,0,45.377,1.549,64.521,32.216c19.146,30.665,1.973,72.301,1.973,72.301"/>
		
			<circle fill="none" stroke="#FFFFFF" stroke-width="8" stroke-linecap="round" stroke-linejoin="round" stroke-miterlimit="10" cx="200.497" cy="200" r="101.511"/>
	</g>
</g>
<g id="members">
</g>
<g id="bolts">
</g>
<g id="draw">
</g>
<g id="Default">
</g>
<g id="cut">
</g>
<g id="favIcon">
</g>
<g id="_x31_31207_x5F_thank_x5F_you_x5F_note">
</g>
<g id="_x31_40227_x5F_banner">
</g>
</svg>
