<?xml version="1.0" encoding="utf-8"?>
<!-- Generator: Adobe Illustrator 16.0.0, SVG Export Plug-In . SVG Version: 6.00 Build 0)  -->
<!DOCTYPE svg PUBLIC "-//W3C//DTD SVG 1.1//EN" "http://www.w3.org/Graphics/SVG/1.1/DTD/svg11.dtd">
<svg version="1.1" xmlns="http://www.w3.org/2000/svg" xmlns:xlink="http://www.w3.org/1999/xlink" x="0px" y="0px" width="400px"
	 height="400px" viewBox="0 0 400 400" enable-background="new 0 0 400 400" xml:space="preserve">
<g id="fill">
	<circle fill="#0F3955" cx="200" cy="200" r="199.221"/>
	<g>
		<path fill="#FFFFFF" d="M179.953,279.164c-7.642-13-14.452-45.795-6.918-63.969c6.677-16.107,21.349-20.318,23.147-24.069
			c1.557-3.242,1.339-6.954,1.339-9.713c0-1.911,0.004-44.905,0.004-46.952s-0.454-5.646-4.115-7.136
			c-7.521-3.062-17.553-2.946-18.833-4.563c-0.63-0.797-0.156-1.598,2.352-1.598c1.843,0,44.222,0,46.063,0
			c2.506,0,2.981,0.809,2.352,1.605c-1.279,1.615-11.309,1.499-18.83,4.562c-3.664,1.491-4.117,5.116-4.117,7.163
			s0.011,45.082,0.011,46.992c0,2.76-0.207,6.55,1.35,9.795c1.797,3.748,16.489,7.807,23.167,23.914
			c7.532,18.175,0.76,50.969-6.883,63.969H179.953z"/>
		<path fill="#FFFFFF" d="M96.793,279.164c-7.642-13-14.452-45.795-6.918-63.969c6.677-16.107,21.348-20.318,23.146-24.069
			c1.558-3.242,1.34-6.954,1.34-9.713c0-1.911,0.004-44.905,0.004-46.952s-0.454-5.646-4.115-7.136
			c-7.521-3.062-17.554-2.946-18.832-4.563c-0.631-0.797-0.157-1.598,2.351-1.598c1.843,0,44.221,0,46.063,0
			c2.506,0,2.981,0.809,2.352,1.605c-1.279,1.615-11.309,1.499-18.831,4.562c-3.664,1.491-4.116,5.116-4.116,7.163
			s0.011,45.082,0.011,46.992c0,2.76-0.208,6.55,1.35,9.795c1.797,3.748,16.489,7.807,23.167,23.914
			c7.532,18.175,0.76,50.969-6.883,63.969H96.793z"/>
		<path fill="#FFFFFF" d="M263.146,121.164c-7.641,13-14.451,45.631-6.917,63.805c6.677,16.107,21.349,20.236,23.146,23.987
			c1.558,3.242,1.34,6.913,1.34,9.672c0,1.911,0.004,44.884,0.004,46.931s-0.454,5.637-4.115,7.126
			c-7.521,3.062-17.554,3.106-18.833,4.724c-0.63,0.797-0.156,1.756,2.352,1.756c1.843,0,44.221,0,46.062,0
			c2.506,0,2.982-0.973,2.353-1.77c-1.279-1.615-11.309-1.581-18.831-4.644c-3.664-1.491-4.116-5.157-4.116-7.204
			s0.01-45.104,0.01-47.014c0-2.76-0.207-6.56,1.351-9.805c1.797-3.748,16.488-7.646,23.167-23.754
			c7.532-18.175,0.76-50.811-6.883-63.811H263.146z"/>
	</g>
</g>
<g id="Layer_1">
</g>
<g id="members">
</g>
<g id="bolts">
</g>
<g id="draw">
</g>
<g id="Default">
</g>
<g id="cut">
</g>
<g id="favIcon">
</g>
<g id="_x31_31207_x5F_thank_x5F_you_x5F_note">
</g>
<g id="_x31_40227_x5F_banner">
</g>
</svg>
