<?xml version="1.0" encoding="utf-8"?>
<!-- Generator: Adobe Illustrator 16.0.0, SVG Export Plug-In . SVG Version: 6.00 Build 0)  -->
<!DOCTYPE svg PUBLIC "-//W3C//DTD SVG 1.1//EN" "http://www.w3.org/Graphics/SVG/1.1/DTD/svg11.dtd">
<svg version="1.1" xmlns="http://www.w3.org/2000/svg" xmlns:xlink="http://www.w3.org/1999/xlink" x="0px" y="0px" width="400px"
	 height="400px" viewBox="0 0 400 400" enable-background="new 0 0 400 400" xml:space="preserve">
<g id="fill">
	<circle fill="#0F3955" cx="200" cy="199.535" r="198.654"/>
</g>
<g id="Layer_1">
	<g>
		
			<path fill="none" stroke="#FFFFFF" stroke-width="5.2735" stroke-linecap="round" stroke-linejoin="round" stroke-miterlimit="10" d="
			M191.536,146.126c-1.611-3.481-3.137-3.192-5.011-5.139"/>
		
			<path fill="none" stroke="#FFFFFF" stroke-width="5.2735" stroke-linecap="round" stroke-linejoin="round" stroke-miterlimit="10" d="
			M151.254,133.53c-24.553-0.129-40.624,5.68-48.127,9.495c-7.507,3.815-16.919,12.467-20.99,17.171
			c-4.068,4.71-4.578,6.363-7.507,10.815c-2.924,4.452-15.774,30.024-17.808,34.474c-2.035,4.454-15.52,30.021-16.409,32.059
			c-0.891,2.035-2.291,2.159-2.674,0c-0.38-2.163,5.216-18.447,6.615-22.391c1.399-3.942,7.89-17.81,10.178-22.388
			c2.29-4.58,6.358-14.123,8.396-17.812c2.035-3.688,5.978-9.287,7.633-11.958c1.657-2.671,11.07-11.322,14.378-14.5
			c3.308-3.182,12.213-10.307,16.282-11.578c4.073-1.273,5.341-0.511,9.033-1.273c3.688-0.762,9.412-2.29,12.337-2.927
			c2.928-0.635,3.944-0.252,8.017-1.016c4.07-0.764,12.849-3.688,15.138-4.708c2.288-1.016,12.592-7.123,16.155-7.504
			c3.562-0.381,10.049,1.271,13.739,1.018c3.688-0.254,7.634-1.781,10.05-2.926c2.416-1.144,16.03-4.196,17.938-4.578
			c1.907-0.382,4.96,0,6.105,0s3.688,0.255,6.995,1.271c3.308,1.017,11.958,0.89,15.141,1.144c3.18,0.255,26.204,4.836,27.983,5.088
			c1.783,0.255,4.962,0.893,6.361,2.163c1.399,1.272,3.561,3.945,5.217,6.489c1.652,2.545,8.014,10.688,10.176,13.613
			c2.162,2.924,7.123,12.592,7.123,12.592s6.529,12.424,7.717,16.327c1.188,3.901,3.055,9.329,2.886,11.194
			c-0.171,1.867-1.525,1.357-2.971-0.594c-1.441-1.951-2.286-4.241-3.137-4.324c-0.85-0.083-3.477-1.613-4.834-6.955
			c0,0-0.51,1.528-2.12,0.511c-1.61-1.019-7.421-8.886-7.292-11.876c0,0-1.762,0.363-3.415-1.61c-2.457-2.93-5.32-7.545-5.32-10.43
			c0,0,0.084,0.678-1.866-0.85c-1.95-1.525-3.308-3.138-3.646-5.255c0,0-6.021-4.391-5.851-7.55c0,0-2.883-3.731-7.38-4.41
			c-4.494-0.679-7.294-2.799-10.346-3.648c-3.054-0.847-24.426-4.833-26.8-5.342c-2.374-0.511-8.988-2.291-12.04-1.867
			c-3.054,0.425-7.296,2.036-10.518,3.308c-3.222,1.272-6.868,1.188-9.499,4.408"/>
		
			<path fill="none" stroke="#FFFFFF" stroke-width="5.2735" stroke-linecap="round" stroke-linejoin="round" stroke-miterlimit="10" d="
			M121.783,137.514c-0.552,0.298-5.597,1.316-4.196,2.248c1.397,0.934,0.38,1.612,0.38,1.612c-0.255,1.528,7.677,0.594,9.541,2.419
			c1.866,1.824,3.944,0.89,7.591,3.222c3.647,2.333,12.383,2.376,15.9,3.606c3.52,1.228,10.814,0.083,13.993-0.596
			c3.182-0.678,8.101-1.695,12.425-5.597c4.325-3.902,7.506-1.629,8.905-0.781c1.4,0.85,5.385,4.426,5.385,4.426
			c3.14-7.335-1.232-7.123-3.349-8.99c-2.12-1.866-1.145-2.543-1.78-3.011c-0.637-0.464-1.189-2.077-0.766-3.012
			c0.426-0.934,0.468-2.756-0.465-4.198c-0.932-1.44-6.063-3.604-8.926-3.054"/>
		<path fill="#FFFFFF" d="M177.03,131.333c0.956,0,1.556,0.548,2.021,1.869c0.588,1.671-0.733,2.406-2.014,3.088
			c-0.253,0.138-0.531,0.203-0.811,0.203c-1.096,0-2.243-0.978-2.521-2.112c-0.339-1.425,0.636-2.508,2.501-2.943
			C176.51,131.369,176.783,131.333,177.03,131.333L177.03,131.333z"/>
	</g>
</g>
<g id="members">
</g>
<g id="bolts">
</g>
<g id="draw">
</g>
<g id="Default">
</g>
<g id="cut">
</g>
<g id="favIcon">
</g>
<g id="_x31_31207_x5F_thank_x5F_you_x5F_note">
</g>
<g id="_x31_40227_x5F_banner">
</g>
</svg>
