<?xml version="1.0" encoding="utf-8"?>
<!-- Generator: Adobe Illustrator 16.0.0, SVG Export Plug-In . SVG Version: 6.00 Build 0)  -->
<!DOCTYPE svg PUBLIC "-//W3C//DTD SVG 1.1//EN" "http://www.w3.org/Graphics/SVG/1.1/DTD/svg11.dtd">
<svg version="1.1" xmlns="http://www.w3.org/2000/svg" xmlns:xlink="http://www.w3.org/1999/xlink" x="0px" y="0px" width="400px"
	 height="400px" viewBox="0 0 400 400" enable-background="new 0 0 400 400" xml:space="preserve">
<g id="fill">
	<path fill="#0F3955" d="M52.823,216.145l28.07-104.892c60.312,16.145,120.623,32.289,180.938,48.437
		c7.327,1.961,11.676,9.492,9.716,16.821c-2.643,9.867-5.287,19.739-7.928,29.61c-1.604,6.01-7.053,10.188-13.28,10.185
		c-5.96-0.006-11.92-0.013-17.877-0.02c1.81-11.837-0.583-16.592-7.169-14.255c-3.647,3.835-7.777,8.582-12.382,14.237
		c1.813-11.836-0.577-16.592-7.162-14.252c-3.65,3.838-7.776,8.582-12.387,14.239c1.812-11.84-0.577-16.593-7.158-14.253
		c-3.652,3.837-7.782,8.578-12.387,14.239c1.81-11.842-0.577-16.597-7.166-14.257c-3.646,3.839-7.776,8.584-12.383,14.24
		c1.812-11.837-0.581-16.592-7.162-14.255c-3.652,3.837-7.777,8.583-12.387,14.239c1.81-11.838-0.577-16.591-7.16-14.256
		c-3.652,3.838-7.777,8.583-12.385,14.241c1.809-11.841-0.581-16.594-7.162-14.254c-3.65,3.834-7.779,8.583-12.385,14.237
		c1.811-11.837-0.58-16.592-7.164-14.254c-3.647,3.835-7.777,8.583-12.382,14.239C68.324,216.162,60.575,216.153,52.823,216.145z
		 M30.827,225.854c-9.305-2.487-18.612-4.979-27.919-7.471c8.898,95.366,84.854,170.66,180.302,178.723
		c95.442,8.062,182.948-53.423,207.718-145.95c24.771-92.526-20.314-189.507-107.024-230.208
		C197.197-19.751,93.786,7.522,38.429,85.692c9.307,2.491,18.614,4.984,27.917,7.446c7.331,1.962,11.68,9.492,9.718,16.82
		L47.648,216.14C45.688,223.47,38.158,227.819,30.827,225.854z"/>
</g>
<g id="Layer_1">
</g>
<g id="members">
</g>
<g id="bolts">
</g>
<g id="draw">
</g>
<g id="Default">
</g>
<g id="cut">
	<path fill="#0F3955" d="M23.629,110.17c3.028,0.812,6.051,1.619,9.075,2.43c7.331,1.962,11.684,9.492,9.72,16.822
		c-4.737,17.692-9.472,35.385-14.209,53.077c-1.962,7.329-9.491,11.677-16.82,9.716c-3.026-0.81-6.051-1.621-9.075-2.432
		C3.798,161.158,10.612,135.708,23.629,110.17z"/>
</g>
<g id="favIcon">
</g>
<g id="_x31_31207_x5F_thank_x5F_you_x5F_note">
</g>
<g id="_x31_40227_x5F_banner">
</g>
</svg>
