<?xml version="1.0" encoding="utf-8"?>
<!-- Generator: Adobe Illustrator 16.0.0, SVG Export Plug-In . SVG Version: 6.00 Build 0)  -->
<!DOCTYPE svg PUBLIC "-//W3C//DTD SVG 1.1//EN" "http://www.w3.org/Graphics/SVG/1.1/DTD/svg11.dtd">
<svg version="1.1" xmlns="http://www.w3.org/2000/svg" xmlns:xlink="http://www.w3.org/1999/xlink" x="0px" y="0px" width="100px"
	 height="100px" viewBox="0 0 100 100" enable-background="new 0 0 100 100" xml:space="preserve">
<g id="back-main">
</g>
<g id="expand">
	<g>
		<path fill="#010101" d="M66.588,94.905c-0.471,0.169-0.944,0.374-1.43,0.459c-1.86,0.333-3.049-0.628-3.06-2.528
			c-0.024-3.527-0.024-7.05,0.032-10.58c0.062-4.055-0.032-8.064-3.122-11.41c1.837-0.33,3.471-0.56,5.068-0.927
			c10.589-2.432,16.088-9.11,16.789-20.194c0.359-5.643-0.646-10.817-4.396-15.262c-0.273-0.312-0.286-1.022-0.158-1.478
			c0.998-3.674,0.71-7.264-0.455-10.854c-0.286-0.897-0.764-1.176-1.649-1.116c-3.108,0.171-5.957,1.264-8.469,2.943
			c-2.42,1.624-4.675,1.977-7.551,1.319c-6.333-1.427-12.706-1.013-19.027,0.452c-0.714,0.171-1.678-0.057-2.332-0.441
			c-2.966-1.738-5.933-3.428-9.354-4.103c-2.646-0.514-2.876-0.383-3.576,2.174c-0.884,3.227-0.972,6.452-0.07,9.694
			c0.129,0.472-0.006,1.23-0.32,1.578c-7.01,7.822-4.472,22.602,0.251,28.265c3.676,4.396,8.554,6.374,13.974,7.402
			c0.945,0.178,1.885,0.311,2.83,0.477c-0.812,2.11-1.54,4.103-2.364,6.064c-0.163,0.377-0.675,0.696-1.095,0.854
			c-5.312,2.062-9.88,0.545-12.921-4.275c-1.626-2.573-3.712-4.495-6.823-5.052c-0.099-0.02-0.198-0.071-0.288-0.058
			c-0.838,0.22-1.666,0.45-2.498,0.676c0.468,0.653,0.8,1.527,1.427,1.922c2.634,1.665,4.348,4.042,5.48,6.849
			c1.78,4.396,5.234,6.356,9.724,6.742c2.189,0.176,4.402,0.026,6.801,0.026c0,2.73,0.1,5.847-0.04,8.95
			c-0.073,1.672-1.753,2.344-3.765,1.656c-5.339-1.825-10.286-4.443-14.562-8.121C4.206,73.713-1.743,56.907,3.387,37.237
			C8.501,17.629,21.826,5.601,41.753,1.826C69.324-3.389,95.444,16.69,98.181,44.681C100.342,66.743,87.354,87.391,66.588,94.905z
			 M40.597,70.671c-0.017,0.038-0.03,0.064-0.046,0.104c0.052,0.008,0.1,0.017,0.153,0.025
			C40.741,70.803,40.773,70.869,40.597,70.671z M28.123,79.392c0.428,0.266,0.84,0.602,1.306,0.75
			c0.169,0.053,0.485-0.332,1.042-0.744c-0.773-0.295-1.229-0.553-1.708-0.617C28.577,78.758,28.334,79.178,28.123,79.392z
			 M32.051,80.066c0.062,0.286,0.634,0.648,0.971,0.639c0.328-0.004,0.646-0.436,0.973-0.685c-0.298-0.27-0.592-0.532-1.502-1.352
			C32.295,79.239,31.967,79.699,32.051,80.066z M36.87,78.906c-0.405,0.097-0.748,0.473-1.12,0.729
			c0.217,0.273,0.434,0.53,0.782,0.959c0.479-0.437,0.806-0.742,1.135-1.039C37.395,79.317,37.073,78.856,36.87,78.906z
			 M24.923,77.278c0.223,0.427,0.573,0.793,1.045,1.396c0.312-0.517,0.655-0.91,0.597-0.99c-0.3-0.392-0.704-0.712-1.105-1.007
			C25.433,76.655,24.875,77.188,24.923,77.278z"/>
	</g>
</g>
</svg>
