<?xml version="1.0" encoding="utf-8"?>
<!-- Generator: Adobe Illustrator 16.0.0, SVG Export Plug-In . SVG Version: 6.00 Build 0)  -->
<!DOCTYPE svg PUBLIC "-//W3C//DTD SVG 1.1//EN" "http://www.w3.org/Graphics/SVG/1.1/DTD/svg11.dtd">
<svg version="1.1" xmlns="http://www.w3.org/2000/svg" xmlns:xlink="http://www.w3.org/1999/xlink" x="0px" y="0px" width="100px"
	 height="100px" viewBox="0 0 100 100" enable-background="new 0 0 100 100" xml:space="preserve">
<g id="back-main">
</g>
<g id="expand">
	<g>
		<path id="LinkedIn__x28_alt_x29_" fill="#010101" d="M91.674,1.105H8.331c-3.991,0-7.226,3.135-7.226,7.006v83.774
			c0,3.87,3.236,7.009,7.226,7.009h83.343c3.99,0,7.221-3.141,7.221-7.009V8.111C98.895,4.243,95.664,1.105,91.674,1.105z
			 M30.753,82.962H15.979V38.811h14.773V82.962z M23.366,32.78h-0.1c-4.954,0-8.165-3.389-8.165-7.632
			c0-4.326,3.308-7.624,8.358-7.624c5.053,0,8.161,3.296,8.261,7.624C31.721,29.393,28.515,32.78,23.366,32.78z M84.014,82.962
			H69.242V59.341c0-5.937-2.141-9.987-7.482-9.987c-4.085,0-6.514,2.734-7.578,5.372c-0.394,0.939-0.492,2.258-0.492,3.576V82.96
			H38.924c0,0,0.194-40.009,0-44.149h14.771v6.26c1.961-3.009,5.464-7.298,13.308-7.298c9.72,0,17.012,6.307,17.012,19.874V82.962
			L84.014,82.962z M53.598,45.212c0.024-0.043,0.06-0.093,0.097-0.141v0.141H53.598z"/>
	</g>
</g>
</svg>
