<?xml version="1.0" encoding="utf-8"?>
<!-- Generator: Adobe Illustrator 16.0.0, SVG Export Plug-In . SVG Version: 6.00 Build 0)  -->
<!DOCTYPE svg PUBLIC "-//W3C//DTD SVG 1.1//EN" "http://www.w3.org/Graphics/SVG/1.1/DTD/svg11.dtd">
<svg version="1.1" xmlns="http://www.w3.org/2000/svg" xmlns:xlink="http://www.w3.org/1999/xlink" x="0px" y="0px" width="100px"
	 height="100px" viewBox="0 0 100 100" enable-background="new 0 0 100 100" xml:space="preserve">
<g id="back-main">
</g>
<g id="expand">
	<g>
		<path d="M2.932,54.103c-0.201,0-0.36,0.156-0.387,0.378l-0.704,5.35l0.704,5.259c0.026,0.223,0.186,0.376,0.387,0.376
			c0.195,0,0.353-0.153,0.384-0.374l0,0v-0.002c0,0,0,0,0,0.002L4.15,59.83l-0.835-5.351C3.285,54.259,3.126,54.103,2.932,54.103z"
			/>
		<path d="M6.893,51.18c-0.033-0.229-0.198-0.389-0.4-0.389c-0.204,0-0.373,0.164-0.401,0.389c0,0.002-0.947,8.65-0.947,8.65
			l0.947,8.459c0.027,0.227,0.196,0.391,0.401,0.391c0.201,0,0.366-0.16,0.399-0.389l1.077-8.461L6.893,51.18z"/>
		<path d="M21.813,43.2c-0.389,0-0.71,0.318-0.729,0.723L20.33,59.839l0.755,10.283c0.02,0.403,0.34,0.721,0.729,0.721
			c0.386,0,0.706-0.32,0.729-0.723v0.004l0.853-10.285l-0.853-15.916C22.52,43.519,22.199,43.2,21.813,43.2z"/>
		<path d="M14.091,48.731c-0.298,0-0.542,0.239-0.566,0.557l-0.849,10.547l0.849,10.2c0.023,0.315,0.269,0.555,0.566,0.555
			c0.295,0,0.538-0.239,0.564-0.555l0.965-10.2l-0.965-10.549C14.629,48.971,14.386,48.731,14.091,48.731z"/>
		<path d="M29.66,70.841c0.481,0,0.874-0.389,0.894-0.887l0.739-10.111l-0.738-21.188c-0.02-0.498-0.411-0.887-0.894-0.887
			c-0.485,0-0.878,0.391-0.894,0.889l-0.656,21.187l0.656,10.115C28.783,70.452,29.176,70.841,29.66,70.841z"/>
		<path d="M45.728,70.889c0.662,0,1.209-0.546,1.222-1.218v0.009v-0.009l0.516-9.822l-0.516-24.47
			c-0.012-0.672-0.56-1.218-1.222-1.218c-0.665,0-1.213,0.546-1.224,1.218l-0.46,24.462c0,0.016,0.46,9.836,0.46,9.836
			C44.515,70.343,45.063,70.889,45.728,70.889z"/>
		<path d="M37.633,70.851c0.576,0,1.042-0.463,1.058-1.054v0.008l0.627-9.96l-0.628-21.343c-0.016-0.589-0.481-1.052-1.058-1.052
			c-0.581,0-1.046,0.463-1.06,1.052l-0.558,21.345l0.56,9.956C36.587,70.388,37.052,70.851,37.633,70.851z"/>
		<path d="M17.938,70.758c0.343,0,0.619-0.275,0.646-0.638l0.91-10.285l-0.91-9.787c-0.024-0.361-0.302-0.635-0.646-0.635
			c-0.349,0-0.627,0.275-0.647,0.64l-0.802,9.782L17.29,70.12C17.312,70.482,17.589,70.758,17.938,70.758z"/>
		<path d="M10.275,70.193c0.251,0,0.454-0.198,0.482-0.472l1.021-9.89l-1.021-10.264c-0.029-0.274-0.232-0.473-0.483-0.473
			c-0.254,0-0.456,0.198-0.482,0.473c0,0.001-0.899,10.264-0.899,10.264l0.899,9.888C9.818,69.995,10.021,70.193,10.275,70.193z"/>
		<path d="M41.664,38.148c-0.627,0-1.129,0.498-1.142,1.136l-0.51,20.562l0.51,9.896c0.013,0.629,0.514,1.127,1.142,1.127
			c0.626,0,1.125-0.496,1.14-1.136v0.009l0.571-9.894l-0.571-20.567C42.789,38.646,42.29,38.148,41.664,38.148z"/>
		<path d="M25.723,70.86c0.433,0,0.789-0.352,0.811-0.803l0.795-10.217l-0.795-19.555c-0.022-0.452-0.378-0.805-0.811-0.805
			c-0.438,0-0.794,0.354-0.812,0.805c0,0.001-0.704,19.555-0.704,19.555l0.705,10.221C24.929,70.509,25.285,70.86,25.723,70.86z"/>
		<path d="M34.605,69.897v-0.006l0.685-10.047l-0.685-21.902c-0.016-0.545-0.444-0.972-0.975-0.972
			c-0.532,0-0.961,0.426-0.976,0.972l-0.606,21.9l0.607,10.053c0.015,0.538,0.443,0.965,0.975,0.965s0.957-0.427,0.975-0.967V69.897
			z"/>
		<path d="M86.313,47.218c-1.623,0-3.172,0.33-4.582,0.921c-0.943-10.678-9.897-19.054-20.819-19.054
			c-2.673,0-5.277,0.525-7.578,1.416c-0.895,0.346-1.132,0.702-1.141,1.394v37.603c0.01,0.725,0.572,1.327,1.279,1.4
			c0.03,0.002,32.629,0.018,32.84,0.018c6.543,0,11.847-5.303,11.847-11.848C98.159,52.524,92.856,47.218,86.313,47.218z"/>
		<path d="M49.771,31.861c-0.711,0-1.296,0.584-1.306,1.302l-0.534,26.689l0.535,9.685c0.009,0.709,0.594,1.291,1.305,1.291
			c0.71,0,1.294-0.582,1.304-1.301v0.013l0.582-9.688l-0.581-26.691C51.065,32.445,50.481,31.861,49.771,31.861z"/>
	</g>
</g>
</svg>
