<?xml version="1.0" encoding="utf-8"?>
<!-- Generator: Adobe Illustrator 16.0.0, SVG Export Plug-In . SVG Version: 6.00 Build 0)  -->
<!DOCTYPE svg PUBLIC "-//W3C//DTD SVG 1.1//EN" "http://www.w3.org/Graphics/SVG/1.1/DTD/svg11.dtd">
<svg version="1.1" xmlns="http://www.w3.org/2000/svg" xmlns:xlink="http://www.w3.org/1999/xlink" x="0px" y="0px" width="100px"
	 height="100px" viewBox="0 0 100 100" enable-background="new 0 0 100 100" xml:space="preserve">
<g id="back-main">
	<path d="M42.584,49.259c-1.015,0-1.953-0.542-2.461-1.42L16.157,6.329c-0.507-0.879-0.507-1.962,0-2.842
		c0.508-0.879,1.446-1.421,2.461-1.421h47.931c1.015,0,1.953,0.542,2.461,1.421c0.507,0.879,0.507,1.962,0,2.842l-23.964,41.51
		C44.538,48.718,43.599,49.259,42.584,49.259z"/>
	<path d="M18.895,96.03c-1.015,0-1.953-0.541-2.46-1.42L2.113,69.806c-0.507-0.879-0.507-1.962,0-2.842
		c0.508-0.879,1.446-1.42,2.461-1.42h28.641c1.015,0,1.954,0.542,2.461,1.42c0.507,0.879,0.507,1.962,0,2.842l-14.32,24.804
		C20.849,95.489,19.911,96.03,18.895,96.03z"/>
	<path d="M77.454,78.405L77.454,78.405c-1.015,0-1.953-0.542-2.461-1.42L56.521,44.989c-0.507-0.879-0.507-1.962,0-2.842
		c0.508-0.879,1.446-1.421,2.461-1.421h36.945c1.016,0,1.953,0.542,2.461,1.421c0.507,0.879,0.507,1.962,0,2.842L79.915,76.985
		C79.407,77.864,78.469,78.405,77.454,78.405z"/>
</g>
<g id="expand">
</g>
</svg>
